<?xml version="1.0" standalone="no"?>
<!DOCTYPE svg PUBLIC "-//W3C//DTD SVG 20010904//EN"
 "http://www.w3.org/TR/2001/REC-SVG-20010904/DTD/svg10.dtd">
<svg version="1.0" xmlns="http://www.w3.org/2000/svg"
 width="512.000000pt" height="512.000000pt" viewBox="0 0 512.000000 512.000000"
 preserveAspectRatio="xMidYMid meet">
<metadata>
Created by potrace 1.11, written by Peter Selinger 2001-2013
</metadata>
<g transform="translate(0.000000,512.000000) scale(0.100000,-0.100000)"
fill="#000000" stroke="none">
<path d="M0 2560 l0 -2560 2560 0 2560 0 0 2560 0 2560 -2560 0 -2560 0 0
-2560z m1882 1063 c58 -98 110 -179 115 -180 4 -2 27 41 50 95 23 53 57 132
75 174 l33 77 410 1 411 0 73 -170 c41 -94 77 -173 81 -175 4 -3 56 76 114
175 l107 180 344 0 345 0 0 -1097 c0 -604 3 -1162 7 -1240 l6 -143 -431 0
-430 0 -51 133 c-29 72 -66 169 -84 215 l-31 82 -77 0 -77 0 -62 -105 -62
-105 -187 0 -186 0 -64 105 -64 106 -79 -3 -79 -3 -56 -145 c-31 -80 -67 -175
-81 -212 l-25 -68 -421 0 -421 0 3 1240 2 1240 343 0 342 0 107 -177z"/>
<path d="M2528 2897 c-15 -40 -39 -103 -53 -140 l-25 -69 56 -94 c31 -52 59
-96 63 -98 4 -3 30 34 58 81 l52 86 -18 46 c-10 25 -35 91 -56 146 -21 55 -41
103 -44 107 -4 4 -18 -25 -33 -65z"/>
</g>
</svg>
